<mxfile host="Electron" agent="Mozilla/5.0 (Windows NT 10.0; Win64; x64) AppleWebKit/537.36 (KHTML, like Gecko) draw.io/26.2.15 Chrome/134.0.6998.205 Electron/35.2.1 Safari/537.36" version="26.2.15">
  <diagram name="發表貼文活動圖" id="zRKCzV3O0CPxqsWtONLe">
    <mxGraphModel dx="1096" dy="1067" grid="1" gridSize="10" guides="1" tooltips="1" connect="1" arrows="1" fold="1" page="1" pageScale="1" pageWidth="827" pageHeight="1169" math="0" shadow="0">
      <root>
        <mxCell id="0" />
        <mxCell id="1" parent="0" />
        <mxCell id="HA4qzbhpFCqeMHOmIHU_-1" value="" style="ellipse;shape=startState;fillColor=#000000;strokeColor=#000000;" vertex="1" parent="1">
          <mxGeometry x="230" y="444" width="30" height="30" as="geometry" />
        </mxCell>
        <mxCell id="HA4qzbhpFCqeMHOmIHU_-2" value="" style="edgeStyle=elbowEdgeStyle;elbow=horizontal;verticalAlign=bottom;endArrow=open;endSize=8;strokeColor=#000000;endFill=1;rounded=0;fillColor=#000000;" edge="1" parent="1" source="HA4qzbhpFCqeMHOmIHU_-1">
          <mxGeometry x="100" y="40" as="geometry">
            <mxPoint x="245.64285714285734" y="514" as="targetPoint" />
          </mxGeometry>
        </mxCell>
        <mxCell id="HA4qzbhpFCqeMHOmIHU_-3" value="" style="endArrow=open;strokeColor=#000000;endFill=1;rounded=0" edge="1" parent="1" target="HA4qzbhpFCqeMHOmIHU_-6">
          <mxGeometry relative="1" as="geometry">
            <mxPoint x="245" y="556" as="sourcePoint" />
            <mxPoint x="244.75" y="616" as="targetPoint" />
          </mxGeometry>
        </mxCell>
        <mxCell id="HA4qzbhpFCqeMHOmIHU_-4" value="使用者" style="swimlane;whiteSpace=wrap;startSize=30;fontSize=20;" vertex="1" parent="1">
          <mxGeometry x="130" y="410" width="270" height="740" as="geometry" />
        </mxCell>
        <mxCell id="HA4qzbhpFCqeMHOmIHU_-5" value="" style="ellipse;html=1;shape=endState;fillColor=#000000;strokeColor=#000000;" vertex="1" parent="HA4qzbhpFCqeMHOmIHU_-4">
          <mxGeometry x="100.01" y="660" width="30" height="30" as="geometry" />
        </mxCell>
        <mxCell id="HA4qzbhpFCqeMHOmIHU_-6" value="點選發文" style="fontSize=20;" vertex="1" parent="HA4qzbhpFCqeMHOmIHU_-4">
          <mxGeometry x="45" y="105" width="140" height="50" as="geometry" />
        </mxCell>
        <mxCell id="HA4qzbhpFCqeMHOmIHU_-30" style="edgeStyle=orthogonalEdgeStyle;rounded=0;orthogonalLoop=1;jettySize=auto;html=1;entryX=0.5;entryY=0;entryDx=0;entryDy=0;" edge="1" parent="HA4qzbhpFCqeMHOmIHU_-4" source="HA4qzbhpFCqeMHOmIHU_-7" target="HA4qzbhpFCqeMHOmIHU_-8">
          <mxGeometry relative="1" as="geometry" />
        </mxCell>
        <mxCell id="HA4qzbhpFCqeMHOmIHU_-7" value="輸入貼文標題及內文" style="fontSize=20;" vertex="1" parent="HA4qzbhpFCqeMHOmIHU_-4">
          <mxGeometry x="24.380000000000003" y="200" width="181.25" height="50" as="geometry" />
        </mxCell>
        <mxCell id="HA4qzbhpFCqeMHOmIHU_-8" value="點擊提交" style="fontSize=20;" vertex="1" parent="HA4qzbhpFCqeMHOmIHU_-4">
          <mxGeometry x="50" y="280" width="130" height="50" as="geometry" />
        </mxCell>
        <mxCell id="HA4qzbhpFCqeMHOmIHU_-9" value="系統" style="swimlane;whiteSpace=wrap;startSize=30;fontSize=20;" vertex="1" parent="1">
          <mxGeometry x="400" y="410" width="450" height="740" as="geometry" />
        </mxCell>
        <mxCell id="HA4qzbhpFCqeMHOmIHU_-10" style="edgeStyle=orthogonalEdgeStyle;rounded=0;orthogonalLoop=1;jettySize=auto;html=1;entryX=0.5;entryY=0;entryDx=0;entryDy=0;" edge="1" parent="HA4qzbhpFCqeMHOmIHU_-9" source="HA4qzbhpFCqeMHOmIHU_-11" target="HA4qzbhpFCqeMHOmIHU_-14">
          <mxGeometry relative="1" as="geometry">
            <mxPoint x="157.8800000000001" y="420" as="targetPoint" />
          </mxGeometry>
        </mxCell>
        <mxCell id="HA4qzbhpFCqeMHOmIHU_-11" value="檢查內容是否為空" style="fontSize=20;" vertex="1" parent="HA4qzbhpFCqeMHOmIHU_-9">
          <mxGeometry x="74.88" y="280" width="170" height="50" as="geometry" />
        </mxCell>
        <mxCell id="HA4qzbhpFCqeMHOmIHU_-12" style="edgeStyle=orthogonalEdgeStyle;rounded=0;orthogonalLoop=1;jettySize=auto;html=1;entryX=0;entryY=0.5;entryDx=0;entryDy=0;" edge="1" parent="HA4qzbhpFCqeMHOmIHU_-9" source="HA4qzbhpFCqeMHOmIHU_-14" target="HA4qzbhpFCqeMHOmIHU_-18">
          <mxGeometry relative="1" as="geometry" />
        </mxCell>
        <mxCell id="HA4qzbhpFCqeMHOmIHU_-13" style="edgeStyle=orthogonalEdgeStyle;rounded=0;orthogonalLoop=1;jettySize=auto;html=1;entryX=0.5;entryY=0;entryDx=0;entryDy=0;" edge="1" parent="HA4qzbhpFCqeMHOmIHU_-9" source="HA4qzbhpFCqeMHOmIHU_-14" target="HA4qzbhpFCqeMHOmIHU_-20">
          <mxGeometry relative="1" as="geometry" />
        </mxCell>
        <mxCell id="HA4qzbhpFCqeMHOmIHU_-14" value="&#xa;" style="rhombus;fillColor=#FFFFFF;strokeColor=#000000;" vertex="1" parent="HA4qzbhpFCqeMHOmIHU_-9">
          <mxGeometry x="142.38" y="420" width="35" height="20" as="geometry" />
        </mxCell>
        <mxCell id="HA4qzbhpFCqeMHOmIHU_-15" value="&lt;font style=&quot;font-size: 15px;&quot;&gt;[是]&lt;/font&gt;" style="whiteSpace=wrap;html=1;strokeColor=none;fillColor=none;" vertex="1" parent="HA4qzbhpFCqeMHOmIHU_-9">
          <mxGeometry x="190" y="405" width="40" height="20" as="geometry" />
        </mxCell>
        <mxCell id="HA4qzbhpFCqeMHOmIHU_-16" value="&lt;font style=&quot;font-size: 15px;&quot;&gt;[否]&lt;/font&gt;" style="whiteSpace=wrap;html=1;strokeColor=none;fillColor=none;" vertex="1" parent="HA4qzbhpFCqeMHOmIHU_-9">
          <mxGeometry x="110" y="440" width="57.25" height="20" as="geometry" />
        </mxCell>
        <mxCell id="HA4qzbhpFCqeMHOmIHU_-18" value="提示請輸入內容" style="fontSize=20;" vertex="1" parent="HA4qzbhpFCqeMHOmIHU_-9">
          <mxGeometry x="257" y="405" width="170" height="50" as="geometry" />
        </mxCell>
        <mxCell id="HA4qzbhpFCqeMHOmIHU_-34" style="edgeStyle=orthogonalEdgeStyle;rounded=0;orthogonalLoop=1;jettySize=auto;html=1;entryX=0.5;entryY=0;entryDx=0;entryDy=0;" edge="1" parent="HA4qzbhpFCqeMHOmIHU_-9" source="HA4qzbhpFCqeMHOmIHU_-20" target="HA4qzbhpFCqeMHOmIHU_-33">
          <mxGeometry relative="1" as="geometry" />
        </mxCell>
        <mxCell id="HA4qzbhpFCqeMHOmIHU_-20" value="儲存貼文" style="fontSize=20;" vertex="1" parent="HA4qzbhpFCqeMHOmIHU_-9">
          <mxGeometry x="74.88" y="470" width="170" height="50" as="geometry" />
        </mxCell>
        <mxCell id="HA4qzbhpFCqeMHOmIHU_-22" value="顯示發文頁面" style="fontSize=20;" vertex="1" parent="HA4qzbhpFCqeMHOmIHU_-9">
          <mxGeometry x="74.88" y="105" width="182.12" height="50" as="geometry" />
        </mxCell>
        <mxCell id="HA4qzbhpFCqeMHOmIHU_-36" style="edgeStyle=orthogonalEdgeStyle;rounded=0;orthogonalLoop=1;jettySize=auto;html=1;entryX=0.5;entryY=0;entryDx=0;entryDy=0;" edge="1" parent="HA4qzbhpFCqeMHOmIHU_-9" source="HA4qzbhpFCqeMHOmIHU_-33" target="HA4qzbhpFCqeMHOmIHU_-35">
          <mxGeometry relative="1" as="geometry" />
        </mxCell>
        <mxCell id="HA4qzbhpFCqeMHOmIHU_-33" value="更新社群頁面" style="fontSize=20;" vertex="1" parent="HA4qzbhpFCqeMHOmIHU_-9">
          <mxGeometry x="74.88" y="560" width="170" height="50" as="geometry" />
        </mxCell>
        <mxCell id="HA4qzbhpFCqeMHOmIHU_-35" value="顯示發文成功" style="fontSize=20;" vertex="1" parent="HA4qzbhpFCqeMHOmIHU_-9">
          <mxGeometry x="74.88" y="650" width="170" height="50" as="geometry" />
        </mxCell>
        <mxCell id="HA4qzbhpFCqeMHOmIHU_-28" style="edgeStyle=orthogonalEdgeStyle;rounded=0;orthogonalLoop=1;jettySize=auto;html=1;entryX=0;entryY=0.5;entryDx=0;entryDy=0;" edge="1" parent="1" source="HA4qzbhpFCqeMHOmIHU_-6" target="HA4qzbhpFCqeMHOmIHU_-22">
          <mxGeometry relative="1" as="geometry" />
        </mxCell>
        <mxCell id="HA4qzbhpFCqeMHOmIHU_-29" style="edgeStyle=orthogonalEdgeStyle;rounded=0;orthogonalLoop=1;jettySize=auto;html=1;entryX=0.5;entryY=0;entryDx=0;entryDy=0;" edge="1" parent="1" source="HA4qzbhpFCqeMHOmIHU_-22" target="HA4qzbhpFCqeMHOmIHU_-7">
          <mxGeometry relative="1" as="geometry">
            <Array as="points">
              <mxPoint x="558" y="580" />
              <mxPoint x="245" y="580" />
            </Array>
          </mxGeometry>
        </mxCell>
        <mxCell id="HA4qzbhpFCqeMHOmIHU_-31" style="edgeStyle=orthogonalEdgeStyle;rounded=0;orthogonalLoop=1;jettySize=auto;html=1;entryX=0;entryY=0.5;entryDx=0;entryDy=0;" edge="1" parent="1" source="HA4qzbhpFCqeMHOmIHU_-8" target="HA4qzbhpFCqeMHOmIHU_-11">
          <mxGeometry relative="1" as="geometry" />
        </mxCell>
        <mxCell id="HA4qzbhpFCqeMHOmIHU_-32" style="edgeStyle=orthogonalEdgeStyle;rounded=0;orthogonalLoop=1;jettySize=auto;html=1;entryX=1;entryY=0.5;entryDx=0;entryDy=0;" edge="1" parent="1" source="HA4qzbhpFCqeMHOmIHU_-18" target="HA4qzbhpFCqeMHOmIHU_-7">
          <mxGeometry relative="1" as="geometry">
            <Array as="points">
              <mxPoint x="750" y="635" />
            </Array>
          </mxGeometry>
        </mxCell>
        <mxCell id="HA4qzbhpFCqeMHOmIHU_-38" style="edgeStyle=orthogonalEdgeStyle;rounded=0;orthogonalLoop=1;jettySize=auto;html=1;entryX=1;entryY=0.5;entryDx=0;entryDy=0;" edge="1" parent="1" source="HA4qzbhpFCqeMHOmIHU_-35" target="HA4qzbhpFCqeMHOmIHU_-5">
          <mxGeometry relative="1" as="geometry" />
        </mxCell>
      </root>
    </mxGraphModel>
  </diagram>
</mxfile>
